<svg xmlns="http://www.w3.org/2000/svg" viewBox="0 0 1093.85 1024"><g id="bg"><rect width="1024" height="1024" fill="#362b4e"/><g id="ground"><rect y="850.2" width="1024" height="173.8" fill="#1c162b"/></g></g><g id="trees"><g id="tree_1" data-name="tree 1"><rect x="137.31" y="703.77" width="34.66" height="177.45" fill="#8b5e3c" stroke="#8b5e3c" stroke-miterlimit="10"/><path id="green_5" data-name="green 5" d="M278.73,693.79a40.24,40.24,0,0,1-59.46,35.33A57.18,57.18,0,0,1,115,738.57a37,37,0,0,1-56.23-42.39,37,37,0,0,1-9.46-71.58,59.57,59.57,0,0,1,81.42-83.19v-.19a41.2,41.2,0,0,1,82.4,0,40.59,40.59,0,0,1-.83,8.23,60.57,60.57,0,0,1,47.58,110.29A40.19,40.19,0,0,1,278.73,693.79Z" fill="#39b54a" stroke="#39b54a" stroke-miterlimit="10"/></g><g id="tree_2" data-name="tree 2"><rect x="330.95" y="764.65" width="20.14" height="131.15" fill="#8b5e3c" stroke="#8b5e3c" stroke-miterlimit="10"/><path id="green_4" data-name="green 4" d="M319.94,831.38a21.46,21.46,0,0,1-24.07-27.94,30.49,30.49,0,0,1-14.63-53.86,19.73,19.73,0,0,1,17-33.46A19.73,19.73,0,0,1,335,704.51a31.76,31.76,0,0,1,51.23,35l.1,0a22,22,0,1,1,3.25,43.6,32.3,32.3,0,0,1-53.5,35.22A21.42,21.42,0,0,1,319.94,831.38Z" fill="#39b54a" stroke="#39b54a" stroke-miterlimit="10"/></g><g id="tree_3" data-name="tree 3"><rect x="685.6" y="759.54" width="22.06" height="121.68" fill="#8b5e3c" stroke="#8b5e3c" stroke-miterlimit="10"/><path id="green_3" data-name="green 3" d="M652.85,788.38a16,16,0,0,1-1.48-27.44,22.72,22.72,0,0,1,15.89-38.44,14.7,14.7,0,0,1,21.39-14.94,15,15,0,0,1,3.9,3,14.7,14.7,0,0,1,26.94,9.87,23.67,23.67,0,0,1,14.28,44l.07,0a16.37,16.37,0,0,1-15.19,29,16.71,16.71,0,0,1-2.75-1.8,23.78,23.78,0,0,1-2.24,6.25A24.07,24.07,0,0,1,668.3,788,16,16,0,0,1,652.85,788.38Z" fill="#39b54a" stroke="#39b54a" stroke-miterlimit="10"/></g><g id="tree_4" data-name="tree 4"><rect x="823.25" y="710.73" width="23.05" height="185.07" fill="#8b5e3c" stroke="#8b5e3c" stroke-miterlimit="10"/><path id="green_4-2" data-name="green 4" d="M731.57,686.26A32,32,0,0,1,756,636.88a45.53,45.53,0,0,1,65.5-51.52,29.47,29.47,0,0,1,55.94,3.91A29.47,29.47,0,0,1,914.76,633a47.43,47.43,0,0,1-18.29,90.87l.09.13a32.81,32.81,0,0,1-55,35.74,32.09,32.09,0,0,1-3-5.85,48.24,48.24,0,0,1-79.62-53A32,32,0,0,1,731.57,686.26Z" fill="#39b54a" stroke="#39b54a" stroke-miterlimit="10"/></g><g id="tree_5" data-name="tree 5"><rect x="984.97" y="780.76" width="15.46" height="128.9" fill="#8b5e3c" stroke="#8b5e3c" stroke-miterlimit="10"/><path id="green_5-2" data-name="green 5" d="M881.77,743.57a32,32,0,0,1,24.37-49.39,45.53,45.53,0,0,1,65.51-51.52,29.47,29.47,0,0,1,55.93,3.91,29.47,29.47,0,0,1,37.37,43.7,47.44,47.44,0,0,1-18.28,90.87l.08.12a32.81,32.81,0,1,1-55,35.75,32.23,32.23,0,0,1-3-5.86,48.23,48.23,0,0,1-79.61-53A32,32,0,0,1,881.77,743.57Z" fill="#39b54a" stroke="#39b54a" stroke-miterlimit="10"/></g></g><g id="stars"><g id="star_4" data-name="star 4"><path d="M920.17,246.27a3.23,3.23,0,0,1-3.21,3.21H903.77v13.19a3.21,3.21,0,0,1-6.42,0V249.48H884.17a3.21,3.21,0,1,1,0-6.42h13.18V229.88a3.23,3.23,0,0,1,3.21-3.22,3.18,3.18,0,0,1,2.27,1,3.21,3.21,0,0,1,.94,2.27v13.18H917A3.23,3.23,0,0,1,920.17,246.27Z" fill="#fef6f8" stroke="#ffea00" stroke-miterlimit="10" stroke-width="2"/></g><g id="star_3" data-name="star 3"><path d="M758.55,433.9a3.23,3.23,0,0,1-3.21,3.21H742.15V450.3a3.21,3.21,0,1,1-6.42,0V437.11H722.55a3.21,3.21,0,1,1,0-6.42h13.18V417.51a3.23,3.23,0,0,1,3.21-3.22,3.18,3.18,0,0,1,2.27.95,3.21,3.21,0,0,1,.94,2.27v13.18h13.19A3.23,3.23,0,0,1,758.55,433.9Z" fill="#fef6f8" stroke="#ffea00" stroke-miterlimit="10" stroke-width="2"/></g><g id="star_2" data-name="star 2"><path d="M403,148.56a3.23,3.23,0,0,1-3.21,3.21H386.57V165a3.21,3.21,0,1,1-6.42,0V151.77H367a3.21,3.21,0,1,1,0-6.42h13.18V132.17a3.23,3.23,0,0,1,3.21-3.22,3.18,3.18,0,0,1,2.27,1,3.21,3.21,0,0,1,.94,2.27v13.18h13.19A3.23,3.23,0,0,1,403,148.56Z" fill="#fef6f8" stroke="#ffea00" stroke-miterlimit="10" stroke-width="2"/></g><g id="star_1" data-name="star 1"><path d="M118.73,324.52a3.23,3.23,0,0,1-3.21,3.21H102.33v13.19a3.21,3.21,0,1,1-6.42,0V327.73H82.73a3.21,3.21,0,1,1,0-6.42H95.91V308.13a3.23,3.23,0,0,1,3.21-3.22,3.18,3.18,0,0,1,2.27.95,3.21,3.21,0,0,1,.94,2.27v13.18h13.19A3.23,3.23,0,0,1,118.73,324.52Z" fill="#fef6f8" stroke="#ffea00" stroke-miterlimit="10" stroke-width="2"/></g></g><g id="moon"><path d="M694.9,562.24A224.67,224.67,0,0,1,495.54,683.17c-124.09,0-224.7-100.6-224.7-224.7s100.61-224.7,224.7-224.7A224.67,224.67,0,0,1,694.9,354.7a175.28,175.28,0,1,0,0,207.54Z" fill="#fef8bc"/></g><g id="rocket"><g id="rocket_wings" data-name="rocket wings"><path d="M447.2,868.85l42.91-128.42c-1.45-15.4-35.17-18.88-49,15.68S424.51,841,447.2,868.85Z" fill="#f47c6c"/><path d="M554.89,868.85,512,740.43c1.45-15.4,35.17-18.88,49,15.68S577.58,841,554.89,868.85Z" fill="#f47c6c"/></g><g id="rocket_body" data-name="rocket body"><path d="M553.72,701.54c0,5.39-.23,11.37-.69,17.76-3.21,45.78-17.48,112.92-36.26,138.85h-31.2c-18.83-26-33.12-93.41-36.28-139.2-.44-6.26-.67-12.12-.67-17.41,0-15.85,2.05-26.29,5.69-33.15,11.27,11.06,28.08,18.07,46.86,18.07s35.69-7.05,47-18.18C551.71,675.13,553.72,685.61,553.72,701.54Z" fill="#fef6f8"/><path d="M548.14,668.28c-11.28,11.12-28.14,18.18-47,18.18s-35.59-7-46.87-18.07c.27-.51.55-1,.83-1.46l3.91-4.84,1.25-1.54L499,612.65a3,3,0,0,1,4.71,0l38.51,47.67,1.65,2,3,3.76C547.32,666.8,547.74,667.51,548.14,668.28Z" fill="#b0ddc9"/><rect x="485.57" y="858.15" width="31.03" height="8.9" fill="#8c5f59"/><path d="M542.2,660.32a86.39,86.39,0,0,1-81.91.23L499,612.65a3,3,0,0,1,4.71,0Z" fill="#f47c6c"/></g><g id="rocket_window" data-name="rocket window"><path d="M501.17,703.77a21.55,21.55,0,1,0,21.55,21.55A21.55,21.55,0,0,0,501.17,703.77ZM501,743.13l-.82,0a16.76,16.76,0,0,1-4.28-.75,15.85,15.85,0,0,1-2.7-1.08,17.41,17.41,0,1,1,23-24.15,17.85,17.85,0,0,1,1,2.16,16.63,16.63,0,0,1,1.14,4.72,16,16,0,0,1,.09,1.7A17.42,17.42,0,0,1,501,743.13Z" fill="#8c5f59"/><path d="M518.46,725.71A17.42,17.42,0,0,1,501,743.13l-.82,0a16.76,16.76,0,0,1-4.28-.75,15.85,15.85,0,0,1-2.7-1.08,17.41,17.41,0,1,1,23-24.15,17.85,17.85,0,0,1,1,2.16,16.63,16.63,0,0,1,1.14,4.72A16,16,0,0,1,518.46,725.71Z" fill="#8c5f59"/><path d="M518.46,725.71A17.42,17.42,0,0,1,501,743.13l-.82,0a16.76,16.76,0,0,1-4.28-.75,15.85,15.85,0,0,1-2.7-1.08,17.41,17.41,0,1,1,23-24.15,17.85,17.85,0,0,1,1,2.16,16.63,16.63,0,0,1,1.14,4.72A16,16,0,0,1,518.46,725.71Z" fill="#b0ddc9"/><path d="M516.2,717.13l-23,24.15a17.39,17.39,0,0,1-6.52-5.66l23.49-24.71A17.34,17.34,0,0,1,516.2,717.13Z" fill="#e7f4ec" opacity="0.5"/><path d="M518.37,724l-18.15,19.1a16.76,16.76,0,0,1-4.28-.75l-.34-.31,21.63-22.76A16.63,16.63,0,0,1,518.37,724Z" fill="#e7f4ec" opacity="0.5"/></g><g id="face"><path d="M492.47,719.67a22.76,22.76,0,0,0-.57,5.27c0,.17.44.2.51.2a3.47,3.47,0,0,0,1.06-.14,3.7,3.7,0,0,0,1-.41c.15-.1.34-.22.34-.43a21.23,21.23,0,0,1,.23-3.47l0,.13c.09-.56.19-1.11.31-1.66s-.91-.33-1.16-.28a4.25,4.25,0,0,0-1.1.34c-.17.09-.55.24-.59.45Z" fill="#231f20"/><path d="M507.39,717.41a35,35,0,0,0-5.53,4,1.05,1.05,0,0,0-.49,1,1,1,0,0,0,.95.66c.53,0,1.05.09,1.57.18l.78.15c-.29-.06.1,0,.16,0l.39.1c.5.14,1,.31,1.5.5l.73.31.3.15c.13.06.14.06,0,0l.2.1a1.92,1.92,0,0,0,2.08-.18c.41-.33.83-1.14.15-1.49a17.31,17.31,0,0,0-6.89-2l.46,1.71c.79-.7,1.61-1.36,2.47-2,.41-.31.84-.6,1.27-.89l.68-.44.29-.18.2-.12c-.15.1-.16.1,0,0a1.7,1.7,0,0,0,.74-.69.77.77,0,0,0-.06-.8,1.64,1.64,0,0,0-2-.21Z" fill="#231f20"/><path d="M493.32,729.59q3.23,0,6.43-.22c1.12-.08,2.24-.2,3.35-.34l1.55-.21.72-.11a1.43,1.43,0,0,0,.35-.06c-.88.44-.49-.24-.5.22s.09.93.08,1.39a8.28,8.28,0,0,1-.16,1.49,8.81,8.81,0,0,1-1,2.69,4.43,4.43,0,0,1-.72.94c-.1.11-.25.19-.35.3s-.1.06-.1.07.64-.08.5-.17-.38-.09-.53-.16a3.44,3.44,0,0,1-.53-.3,7.35,7.35,0,0,1-1.07-.94,18.55,18.55,0,0,1-3.59-5.42c-.32-.73-3.14.22-2.9.77a19.37,19.37,0,0,0,3.76,5.65,4.85,4.85,0,0,0,2.74,1.6,5.87,5.87,0,0,0,3.88-.93,7.41,7.41,0,0,0,2.91-5.49,10.35,10.35,0,0,0,0-1.76c0-.46-.06-.92-.58-1.08a4.2,4.2,0,0,0-1.83.08c-.65.1-1.31.2-2,.28a67.23,67.23,0,0,1-8.62.49,3.6,3.6,0,0,0-2.05.55c-.43.29-.42.67.18.67Z" fill="#231f20"/></g><g id="beam"><g id="long_beam" data-name="long beam"><rect x="483.1" y="913.38" width="33.92" height="14.83" fill="#f9a647"/></g><g id="circle_beam" data-name="circle beam"><circle cx="501.06" cy="911.21" r="29.99" fill="#f9a647"/><circle cx="501.06" cy="909.66" r="13.86" fill="#fff48e"/><circle cx="511.11" cy="921.6" r="5.91" fill="#fff48e"/><circle cx="493.72" cy="928.21" r="4.04" fill="#fff48e"/><circle cx="489.67" cy="915.68" r="4.04" fill="#fff48e"/><circle cx="515.15" cy="907.17" r="4.04" fill="#fff48e"/></g></g></g><g id="smoke"><g id="smoke_4" data-name="smoke 4"><path d="M1024,458.47V1024H607.86A179,179,0,0,1,691.7,872.3,151.81,151.81,0,0,1,814.31,631c1.3,0,2.6,0,3.9,0a79.75,79.75,0,0,1,121.26-40.83A158.63,158.63,0,0,1,1024,458.47Z" fill="#b59e3d"/></g><g id="smoke_3" data-name="smoke 3"><path d="M436.21,1024H0V499.06c88.56,34.23,151.37,120.19,151.37,220.83a235.81,235.81,0,0,1-19.16,93.42A99.1,99.1,0,0,1,250.42,910.5q0,4.29-.37,8.48h.37A62.54,62.54,0,0,1,313,981.52c0,.31,0,.62,0,.92A78,78,0,0,1,436.21,1024Z" fill="#b59e3d"/></g><g id="smoke_2" data-name="smoke 2"><path d="M1024,671.75V1024H358.92c1.21-.75,2.43-1.47,3.67-2.17a119.64,119.64,0,0,1,104.1-6.58q-.39-4.82-.39-9.74a120.32,120.32,0,0,1,173.22-108,31.43,31.43,0,0,1,25.09-50.36,31.6,31.6,0,0,1,5,.39,77,77,0,0,1,148.68,11.67,106.54,106.54,0,0,1,85.15-42.36,108.09,108.09,0,0,1,16.2,1.22,106.85,106.85,0,0,1,99.2-146.4c1.12,0,2.24,0,3.35.06C1022.79,671.69,1023.39,671.72,1024,671.75Z" fill="#d7b928"/></g><g id="smoke_1" data-name="smoke 1"><path d="M766.72,1024H0V740.57a43.73,43.73,0,0,1,34.19-.1c0-1.14,0-2.28,0-3.43a138.14,138.14,0,1,1,273.7,26.71,52.36,52.36,0,0,1,14.48,83.17,64.44,64.44,0,0,1,28.9,25.43,75.16,75.16,0,0,1,36.4-9.34,74.34,74.34,0,0,1,10.3.71A75.48,75.48,0,0,1,513.35,959a121.12,121.12,0,0,1,30.95,20.38,69.52,69.52,0,0,1,132.34,37.08,92.56,92.56,0,0,1,86.71,5.41C764.49,1022.52,765.61,1023.25,766.72,1024Z" fill="#fee672"/></g></g><g id="smallrocket"><path d="M609,198.2l-9.75,29.17c.33,3.5,8,4.29,11.12-3.56S614.14,204.54,609,198.2Z" fill="#f47c6c"/><path d="M584.53,198.2l9.74,29.17c-.32,3.5-8,4.29-11.12-3.56S579.37,204.54,584.53,198.2Z" fill="#f47c6c"/><path d="M584.79,236.2c0-1.22.06-2.58.16-4,.73-10.4,4-25.65,8.24-31.54h7.08c4.28,5.91,7.53,21.22,8.24,31.62.1,1.42.15,2.75.15,3.95,0,3.6-.46,6-1.29,7.53a15.85,15.85,0,0,0-21.31,0C585.25,242.2,584.79,239.82,584.79,236.2Z" fill="#fef6f8"/><path d="M586.06,243.76a15.85,15.85,0,0,1,21.31,0,2.59,2.59,0,0,1-.19.33l-.88,1.1-.29.35-8.78,10.88a.69.69,0,0,1-1.07,0l-8.75-10.82-.37-.47-.69-.85C586.25,244.1,586.15,243.93,586.06,243.76Z" fill="#b0ddc9"/><rect x="593.22" y="198.61" width="7.05" height="2.02" transform="translate(1193.5 399.25) rotate(180)" fill="#8c5f59"/><path d="M587.41,245.57a19.58,19.58,0,0,1,18.6-.06l-8.78,10.88a.69.69,0,0,1-1.07,0Z" fill="#f47c6c"/><path d="M596.73,235.7a4.9,4.9,0,1,0-4.89-4.9A4.89,4.89,0,0,0,596.73,235.7Zm0-8.94H597a4.48,4.48,0,0,1,1,.17,4.6,4.6,0,0,1,.61.25,3.91,3.91,0,0,1,1.48,1.28,4,4,0,0,1-5.34,5.62,3.91,3.91,0,0,1-1.35-1.42,3.71,3.71,0,0,1-.24-.49,4.09,4.09,0,0,1-.26-1.07c0-.13,0-.26,0-.39A4,4,0,0,1,596.76,226.76Z" fill="#8c5f59"/><path d="M592.8,230.71a4,4,0,0,1,4-4H597a4.48,4.48,0,0,1,1,.17,4.6,4.6,0,0,1,.61.25,3.91,3.91,0,0,1,1.48,1.28,4,4,0,0,1-5.34,5.62,3.91,3.91,0,0,1-1.35-1.42,3.71,3.71,0,0,1-.24-.49,4.09,4.09,0,0,1-.26-1.07C592.81,231,592.8,230.84,592.8,230.71Z" fill="#8c5f59"/><path d="M592.8,230.71a4,4,0,0,1,4-4H597a4.48,4.48,0,0,1,1,.17,4.6,4.6,0,0,1,.61.25,3.91,3.91,0,0,1,1.48,1.28,4,4,0,0,1-5.34,5.62,3.91,3.91,0,0,1-1.35-1.42,3.71,3.71,0,0,1-.24-.49,4.09,4.09,0,0,1-.26-1.07C592.81,231,592.8,230.84,592.8,230.71Z" fill="#b0ddc9"/><path d="M593.32,232.66l5.21-5.48a3.91,3.91,0,0,1,1.48,1.28l-5.34,5.62A3.91,3.91,0,0,1,593.32,232.66Z" fill="#e7f4ec" opacity="0.5"/><path d="M592.82,231.1l4.13-4.34a4.48,4.48,0,0,1,1,.17l.07.07-4.91,5.17A4.09,4.09,0,0,1,592.82,231.1Z" fill="#e7f4ec" opacity="0.5"/><circle cx="596.75" cy="188.58" r="6.81" fill="#f9a647"/><circle cx="596.75" cy="188.94" r="3.15" fill="#fff48e"/><circle cx="599.34" cy="187.57" r="0.92" fill="#fff48e"/><circle cx="593.55" cy="189.5" r="0.92" fill="#fff48e"/></g><g id="explosion"><path id="big_smoke" data-name="big smoke" d="M652.3,237.87a29,29,0,0,1-50.94,18.89A26.45,26.45,0,0,1,566,217.85a11.91,11.91,0,0,1,5.26-22.59,12.75,12.75,0,0,1,2.07.18v-.18a17.44,17.44,0,0,1,28-13.86A28.76,28.76,0,0,1,644.43,218,28.81,28.81,0,0,1,652.3,237.87Z" fill="#c2b59b"/><g id="poof"><circle cx="563.42" cy="218.71" r="7.82" fill="#c2b59b"/><circle cx="565.12" cy="183.65" r="11.61" fill="#c2b59b"/><circle cx="646.13" cy="252.99" r="12.89" fill="#c2b59b"/><circle cx="655.25" cy="196.9" r="9.12" fill="#c2b59b"/></g></g></svg>